{"title":"Mars Needs Moms 2011 TS XViD DTRG - SAFCuk009","uid":6255113,"size":932728828,"categoryP":"video","categoryS":"movies","magnet":"?xt=urn:btih:3af50c56724caf83c342de5f29689e2bd1a773da&amp;dn=Mars+Needs+Moms+2011+TS+XViD+DTRG+-+SAFCuk009&amp;tr=udp%3A%2F%2Ftracker.openbittorrent.com%3A80&amp;tr=udp%3A%2F%2Fopen.demonii.com%3A1337&amp;tr=udp%3A%2F%2Ftracker.coppersurfer.tk%3A6969&amp;tr=udp%3A%2F%2Fexodus.desync.com%3A6969","seeders":1,"leechers":0,"uploader":"SAFCukO09","files":4,"time":1300544426,"description":"[center][img]http://img101.imageshack.us/img101/2390/marsneedsmoms.jpg[/img]\n\n\n\n\n[img]http://leetleech.org/images/48874973695367351744.png[/img]\n\n\nFormat                           : AVI\nFormat/Info                      : Audio Video Interleave\nFile size                        : 884 MiB\nDuration                         : 1h 21mn\nOverall bit rate                 : 1 518 Kbps\nWriting library                  : VirtualDub build 32839/release\n\nVideo\nID                               : 0\nFormat                           : MPEG-4 Visual\nFormat profile                   : Advanced Simple@L5\nFormat settings, BVOP            : Yes\nFormat settings, QPel            : No\nFormat settings, GMC             : No warppoints\nFormat settings, Matrix          : Custom\nCodec ID                         : XVID\nCodec ID/Hint                    : XviD\nDuration                         : 1h 21mn\nBit rate                         : 1 380 Kbps\nWidth                            : 720 pixels\nHeight                           : 304 pixels\nDisplay aspect ratio             : 2.35:1\nFrame rate                       : 25.000 fps\nColor space                      : YUV\nChroma subsampling               : 4:2:0\nBit depth                        : 8 bits\nScan type                        : Progressive\nBits/(Pixel*Frame)               : 0.252\nStream size                      : 803 MiB (91%)\nWriting library                  : XviD 1.2.1 (UTC 2008-12-04)\n\nAudio\nID                               : 1\nFormat                           : MPEG Audio\nFormat version                   : Version 1\nFormat profile                   : Layer 3\nCodec ID                         : 55\nCodec ID/Hint                    : MP3\nDuration                         : 1h 21mn\nBit rate mode                    : Constant\nBit rate                         : 128 Kbps\nChannel(s)                       : 2 channels\nSampling rate                    : 44.1 KHz\nStream size                      : 74.5 MiB (8%)\nAlignment                        : Split accross interleaves\nInterleave, duration             : 40 ms (1.00 video frame)\nInterleave, preload duration     : 500 ms\n\n\n\n &lt;a href=&quot;\nhttp://www.imdb.com/title/tt1305591/&quot; rel=&quot;nofollow&quot; target=&quot;_NEW&quot;&gt;\nhttp://www.imdb.com/title/tt1305591/&lt;/a&gt;\n\n\n\n\n[IMG]http://leetleech.org/images/89524873606771859129.png[/IMG]\n\n\nUsers: 4.2/10 (538 votes) 20 reviews | Critics: 55 reviews Metascore: 49/100 (based on 22 reviews from Metacritic.com)\n\nA young boy named Milo gains a deeper appreciation for his mom after Martians come to Earth to take her away.\nDirector:\nSimon Wells\nWriters:\nSimon Wells (screenplay), Wendy Wells (screenplay), and 1 more credit Ã‚Â»\nStars:\nSeth Green, Joan Cusack and Dan Fogler\n\n\n\n\n[img]http://leetleech.org/images/95521316153253938506.png[/img]\n\n\n\n &lt;a href=&quot;\nhttp://img830.imageshack.us/img830/8868/vlcsnap2011031909h35m20.png&quot; rel=&quot;nofollow&quot; target=&quot;_NEW&quot;&gt;\nhttp://img830.imageshack.us/img830/8868/vlcsnap2011031909h35m20.png&lt;/a&gt; &lt;a href=&quot;\nhttp://img145.imageshack.us/img145/392/vlcsnap2011031909h35m50.png&quot; rel=&quot;nofollow&quot; target=&quot;_NEW&quot;&gt;\nhttp://img145.imageshack.us/img145/392/vlcsnap2011031909h35m50.png&lt;/a&gt; &lt;a href=&quot;\nhttp://img109.imageshack.us/img109/8058/vlcsnap2011031909h34m32.png&quot; rel=&quot;nofollow&quot; target=&quot;_NEW&quot;&gt;\nhttp://img109.imageshack.us/img109/8058/vlcsnap2011031909h34m32.png&lt;/a&gt;\n\n\nVIDEO:planeta.2011.CAMRip ............. Thanks\n\nAUDIO:Imagine ............... Thanks  \n\n\nVideo is dark,samples included so no point moaning afterwards that its dark....You cant really lighten it up much either or the quality goes worse than ever ....Ran a few filters nothing special ..The star of the show is definetly imagines audio (thanks guys)  .Take it or leave it\n\nGreetz to Imagine ,Flawl3ss,DiLLoN,BDK,NOiR,TOXiCiNK,THC,Ez,Rx,\n\n\n\n\n\n[img]http://img411.imageshack.us/img411/6898/sig1n.jpg[/img]\n\n\n\n\n\n","torrent":{"xt":"urn:btih:3af50c56724caf83c342de5f29689e2bd1a773da","amp;dn":"Mars+Needs+Moms+2011+TS+XViD+DTRG+-+SAFCuk009","amp;tr":["udp%3A%2F%2Ftracker.openbittorrent.com%3A80","udp%3A%2F%2Fopen.demonii.com%3A1337","udp%3A%2F%2Ftracker.coppersurfer.tk%3A6969","udp%3A%2F%2Fexodus.desync.com%3A6969"],"infoHash":"3af50c56724caf83c342de5f29689e2bd1a773da","infoHashBuffer":{"type":"Buffer","data":[58,245,12,86,114,76,175,131,195,66,222,95,41,104,158,43,209,167,115,218]},"announce":[],"urlList":[]}}